<mxfile host="app.diagrams.net" modified="2024-06-28T06:46:20.143Z" agent="Mozilla/5.0 (Windows NT 10.0; Win64; x64) AppleWebKit/537.36 (KHTML, like Gecko) Chrome/126.0.0.0 Safari/537.36" etag="Wb0fEDaN0KjBPlgV75Uc" version="24.6.4" type="github">
  <diagram name="第 1 页" id="pLs1YovIOWQSdJ6FMcre">
    <mxGraphModel dx="1434" dy="841" grid="1" gridSize="10" guides="1" tooltips="1" connect="1" arrows="1" fold="1" page="1" pageScale="1" pageWidth="827" pageHeight="1169" math="0" shadow="0">
      <root>
        <mxCell id="0" />
        <mxCell id="1" parent="0" />
        <mxCell id="Jsw2-iJPaTUwHKjVnXIo-1" value="&lt;font style=&quot;font-size: 20px;&quot;&gt;注册中心&lt;/font&gt;" style="rounded=1;whiteSpace=wrap;html=1;labelBackgroundColor=none;fillColor=#FAE5C7;strokeColor=#0F8B8D;fontColor=#143642;" vertex="1" parent="1">
          <mxGeometry x="350" y="190" width="180" height="140" as="geometry" />
        </mxCell>
        <mxCell id="Jsw2-iJPaTUwHKjVnXIo-2" value="&lt;font style=&quot;font-size: 20px;&quot;&gt;运维监控服务&lt;/font&gt;" style="rounded=1;whiteSpace=wrap;html=1;labelBackgroundColor=none;fillColor=#FAE5C7;strokeColor=#0F8B8D;fontColor=#143642;" vertex="1" parent="1">
          <mxGeometry x="70" y="420" width="170" height="130" as="geometry" />
        </mxCell>
        <mxCell id="Jsw2-iJPaTUwHKjVnXIo-3" value="&lt;font style=&quot;font-size: 20px;&quot;&gt;应用服务&lt;/font&gt;" style="rounded=1;whiteSpace=wrap;html=1;labelBackgroundColor=none;fillColor=#FAE5C7;strokeColor=#0F8B8D;fontColor=#143642;" vertex="1" parent="1">
          <mxGeometry x="610" y="420" width="170" height="130" as="geometry" />
        </mxCell>
        <mxCell id="Jsw2-iJPaTUwHKjVnXIo-4" value="" style="shape=flexArrow;endArrow=classic;html=1;rounded=0;labelBackgroundColor=none;strokeColor=#A8201A;fontColor=default;" edge="1" parent="1">
          <mxGeometry width="50" height="50" relative="1" as="geometry">
            <mxPoint x="320" y="260" as="sourcePoint" />
            <mxPoint x="180" y="400" as="targetPoint" />
          </mxGeometry>
        </mxCell>
        <mxCell id="Jsw2-iJPaTUwHKjVnXIo-6" value="&lt;font style=&quot;font-size: 20px;&quot;&gt;提供服务节点信息&lt;/font&gt;" style="text;html=1;align=center;verticalAlign=middle;whiteSpace=wrap;rounded=0;labelBackgroundColor=none;fontColor=#143642;" vertex="1" parent="1">
          <mxGeometry x="90" y="260" width="180" height="30" as="geometry" />
        </mxCell>
        <mxCell id="Jsw2-iJPaTUwHKjVnXIo-7" value="" style="shape=flexArrow;endArrow=classic;html=1;rounded=0;labelBackgroundColor=none;strokeColor=#A8201A;fontColor=default;" edge="1" parent="1">
          <mxGeometry width="50" height="50" relative="1" as="geometry">
            <mxPoint x="570" y="480" as="sourcePoint" />
            <mxPoint x="260" y="480" as="targetPoint" />
          </mxGeometry>
        </mxCell>
        <mxCell id="Jsw2-iJPaTUwHKjVnXIo-8" value="&lt;font style=&quot;font-size: 20px;&quot;&gt;提供健康检测、运行指标等基础能力&lt;/font&gt;" style="text;html=1;align=center;verticalAlign=middle;whiteSpace=wrap;rounded=0;labelBackgroundColor=none;fontColor=#143642;" vertex="1" parent="1">
          <mxGeometry x="350" y="500" width="170" height="50" as="geometry" />
        </mxCell>
        <mxCell id="Jsw2-iJPaTUwHKjVnXIo-10" value="数据库" style="shape=cylinder3;whiteSpace=wrap;html=1;boundedLbl=1;backgroundOutline=1;size=15;labelBackgroundColor=none;fillColor=#FAE5C7;strokeColor=#0F8B8D;fontColor=#143642;" vertex="1" parent="1">
          <mxGeometry x="340" y="650" width="120" height="150" as="geometry" />
        </mxCell>
        <mxCell id="Jsw2-iJPaTUwHKjVnXIo-11" value="" style="shape=flexArrow;endArrow=classic;html=1;rounded=0;labelBackgroundColor=none;strokeColor=#A8201A;fontColor=default;" edge="1" parent="1">
          <mxGeometry width="50" height="50" relative="1" as="geometry">
            <mxPoint x="190" y="590" as="sourcePoint" />
            <mxPoint x="320" y="680" as="targetPoint" />
          </mxGeometry>
        </mxCell>
        <mxCell id="Jsw2-iJPaTUwHKjVnXIo-12" value="&lt;font style=&quot;font-size: 20px;&quot;&gt;服务运行数据&lt;/font&gt;" style="text;html=1;align=center;verticalAlign=middle;whiteSpace=wrap;rounded=0;labelBackgroundColor=none;fontColor=#143642;" vertex="1" parent="1">
          <mxGeometry x="240" y="585" width="90" height="30" as="geometry" />
        </mxCell>
        <mxCell id="Jsw2-iJPaTUwHKjVnXIo-13" value="&lt;font style=&quot;font-size: 20px;&quot;&gt;AI离线分析&lt;/font&gt;" style="rounded=1;whiteSpace=wrap;html=1;labelBackgroundColor=none;fillColor=#FAE5C7;strokeColor=#0F8B8D;fontColor=#143642;" vertex="1" parent="1">
          <mxGeometry x="50" y="690" width="130" height="60" as="geometry" />
        </mxCell>
        <mxCell id="Jsw2-iJPaTUwHKjVnXIo-14" value="" style="shape=flexArrow;endArrow=classic;html=1;rounded=0;labelBackgroundColor=none;strokeColor=#A8201A;fontColor=default;" edge="1" parent="1">
          <mxGeometry width="50" height="50" relative="1" as="geometry">
            <mxPoint x="310" y="720" as="sourcePoint" />
            <mxPoint x="200" y="720" as="targetPoint" />
          </mxGeometry>
        </mxCell>
        <mxCell id="Jsw2-iJPaTUwHKjVnXIo-15" value="" style="shape=flexArrow;endArrow=classic;html=1;rounded=0;labelBackgroundColor=none;strokeColor=#A8201A;fontColor=default;" edge="1" parent="1">
          <mxGeometry width="50" height="50" relative="1" as="geometry">
            <mxPoint x="100" y="680" as="sourcePoint" />
            <mxPoint x="100" y="570" as="targetPoint" />
          </mxGeometry>
        </mxCell>
        <mxCell id="Jsw2-iJPaTUwHKjVnXIo-16" value="&lt;font style=&quot;font-size: 20px;&quot;&gt;告警阈值&lt;/font&gt;" style="edgeLabel;html=1;align=center;verticalAlign=middle;resizable=0;points=[];labelBackgroundColor=none;fontColor=#143642;" vertex="1" connectable="0" parent="Jsw2-iJPaTUwHKjVnXIo-15">
          <mxGeometry x="-0.0444" y="1" relative="1" as="geometry">
            <mxPoint as="offset" />
          </mxGeometry>
        </mxCell>
        <mxCell id="Jsw2-iJPaTUwHKjVnXIo-17" value="&lt;font style=&quot;font-size: 20px;&quot;&gt;服务异常告知&lt;/font&gt;" style="text;html=1;align=center;verticalAlign=middle;whiteSpace=wrap;rounded=0;fontColor=#143642;" vertex="1" parent="1">
          <mxGeometry x="320" y="430" width="150" height="30" as="geometry" />
        </mxCell>
      </root>
    </mxGraphModel>
  </diagram>
</mxfile>
